<svg fill="none" xmlns="http://www.w3.org/2000/svg"><circle cx="40" cy="40" r="40" fill="#fff"></circle><g clip-path="url(#clip0)"><path d="M53.22 56.209c-6.095 1.832-11.844.984-14.978.169-.086 1.256-.224 1.782-.43 1.985-.242.272-2.238 1.391-3.34-.203-.483-.764-.724-2.138-.861-3.393-7.06-3.156-10.331-7.803-10.434-7.973-.173-.17-1.774-1.816-.173-3.851 1.498-1.832 6.457-3.681 10.898-4.41.172-3.733.585-6.617 1.119-7.889.638-1.527 1.446-.17 2.17.848.585.764.946 4.039.981 6.65 2.892-.135 4.649.069 7.869.68 4.235.712 7.058 2.85 6.835 5.258-.207 2.376-2.41 3.359-3.271 3.426-.861.069-2.239-.56-2.239-.56-.964-.44-.086-.848 1.034-1.323 1.239-.593.964-1.187.964-1.187-.448-1.357-5.94-2.256-11.398-2.256 0 2.969.12 7.89.207 10.756 3.822.712 6.68.56 6.68.56s13.946-.39 14.342-9.161c.43-8.79-13.946-17.203-24.534-19.85-10.57-2.73-16.563-.797-17.08-.543-.568.272-.05.374-.05.374s.568.085 1.6.424c1.034.339.207.848.207.848-1.808.61-3.822.254-4.218-.56-.397-.797.258-1.527 1.033-2.595.723-1.103 1.55-1.07 1.55-1.07 13.085-4.495 29.062 3.564 29.062 3.564 14.944 7.43 17.492 16.167 17.217 19.56-.241 3.342-1.55 8.991-10.76 11.74v-.018h-.001zM24.47 44.079c-1.48.678-.448 1.765-.448 1.765 2.788 2.934 6.198 4.783 9.469 5.938.379-5.09.344-6.905.344-9.467-5.061.34-7.988 1.154-9.365 1.764z" fill="#25163C"></path></g><defs><clipPath id="clip0"><path fill="#fff" transform="translate(15 20)" d="M0 0h49v39H0z"></path></clipPath></defs></svg>